# xmcd
#
# Track frame offsets:
#	150
#	16173
#	35808
#	52820
#	68405
#	89453
#	105767
#	119508
#	135013
#	152745
#	170901
#	186988
#
# Disc length: 2712 seconds
#
# Revision: 0
# Processed by: cddbd v1.5.2PL0 Copyright (c) Steve Scherf et al.
# Submitted via: EasyCDDAExtractor 5.0.4.1
#
DISCID=910a960c
DTITLE=Cole Younger Band - Younger All the Time
DYEAR=2000
DGENRE=Country Rock
TTITLE0=The Guitar Knows
TTITLE1=Blaze of Glory
TTITLE2=The Ocean Song
TTITLE3=Beverly
TTITLE4=The Friend
TTITLE5=Stop on a Dime
TTITLE6=I Found You
TTITLE7=Every Cowboys Dream
TTITLE8=If I Only Knew
TTITLE9=Man Behind the Glass
TTITLE10=How
TTITLE11=Baby Baby
EXTD=
EXTT0=
EXTT1=
EXTT2=
EXTT3=
EXTT4=
EXTT5=
EXTT6=
EXTT7=
EXTT8=
EXTT9=
EXTT10=
EXTT11=
PLAYORDER=
